<?xml version="1.0" standalone="no"?>
<!DOCTYPE svg PUBLIC "-//W3C//DTD SVG 20010904//EN"
 "http://www.w3.org/TR/2001/REC-SVG-20010904/DTD/svg10.dtd">
<svg version="1.0" xmlns="http://www.w3.org/2000/svg"
 width="1024.000000pt" height="1024.000000pt" viewBox="0 0 1024.000000 1024.000000"
 preserveAspectRatio="xMidYMid meet">

<g transform="translate(0.000000,1024.000000) scale(0.100000,-0.100000)"
fill="#000000" stroke="none">
<path d="M6814 8820 c-238 -62 -406 -193 -509 -398 -62 -125 -80 -193 -80
-317 0 -98 3 -116 26 -165 42 -89 100 -154 166 -186 l58 -29 1096 -3 c977 -2
1097 -1 1103 13 10 26 -14 174 -39 240 -72 191 -251 347 -460 401 -76 19 -252
25 -340 11 l-50 -8 -40 63 c-52 82 -195 224 -267 266 -86 51 -208 101 -285
117 -97 21 -290 18 -379 -5z m411 -34 c82 -22 195 -77 270 -131 95 -68 245
-240 245 -282 0 -7 -33 -29 -72 -49 -105 -53 -196 -145 -248 -248 -22 -45 -40
-92 -40 -104 0 -42 27 -22 48 36 60 163 207 290 392 339 92 24 251 21 354 -6
44 -12 112 -39 151 -61 40 -21 76 -36 80 -32 5 4 5 2 1 -5 -4 -7 8 -23 29 -39
47 -35 122 -136 153 -204 27 -59 51 -156 52 -206 l0 -31 -332 -5 c-183 -3
-659 -5 -1058 -3 -834 2 -795 -2 -885 89 -61 62 -94 127 -103 209 -21 179 53
374 198 523 117 121 254 194 420 225 68 12 277 3 345 -15z"/>
<path d="M2770 8770 c-159 -22 -279 -87 -412 -221 -83 -84 -104 -112 -142
-191 -100 -207 -100 -440 0 -667 31 -69 97 -156 143 -187 l36 -24 891 0 892 0
5 22 c10 37 -12 216 -33 272 -39 103 -135 225 -215 271 -91 53 -154 70 -265
70 -83 0 -119 -5 -172 -23 -61 -21 -208 -113 -208 -130 0 -4 -12 -20 -26 -37
-31 -36 -70 -111 -95 -182 -18 -52 -18 -53 2 -53 11 0 19 7 19 16 0 8 15 48
34 89 24 53 53 92 102 142 156 158 355 193 550 98 168 -82 284 -283 272 -469
l-3 -48 -700 -2 c-385 0 -760 0 -832 2 l-133 3 0 27 c0 81 96 196 190 227 97
32 194 13 282 -57 51 -40 70 -26 26 19 -88 92 -248 114 -370 52 -80 -41 -150
-139 -167 -232 -6 -37 -10 -42 -31 -39 -53 6 -139 121 -189 251 -77 203 -58
445 50 628 46 78 180 210 259 256 327 190 775 72 962 -254 37 -66 64 -87 54
-42 -24 97 -180 262 -314 332 -136 70 -312 101 -462 81z"/>
<path d="M5310 8570 l0 -159 -122 -3 c-108 -3 -123 -5 -126 -20 -3 -16 8 -18
122 -18 l126 0 0 -130 c0 -109 2 -130 15 -130 13 0 15 21 15 130 l0 130 125 0
c118 0 125 1 125 20 0 19 -7 20 -125 20 -69 0 -124 3 -124 8 1 4 1 76 0 160
-1 128 -3 152 -16 152 -13 0 -15 -24 -15 -160z"/>
<path d="M7008 7703 c6 -2 18 -2 25 0 6 3 1 5 -13 5 -14 0 -19 -2 -12 -5z"/>
<path d="M7068 7703 c7 -3 16 -2 19 1 4 3 -2 6 -13 5 -11 0 -14 -3 -6 -6z"/>
<path d="M1877 7490 c-61 -16 -110 -45 -158 -97 -63 -68 -91 -130 -103 -235
l-10 -88 -53 0 c-46 0 -53 -3 -53 -20 0 -20 7 -20 573 -20 491 0 576 2 593 15
19 14 19 15 -3 21 -22 6 -33 30 -33 77 0 80 -111 216 -195 238 -53 15 -136 5
-188 -20 -28 -14 -43 -17 -46 -10 -9 27 -74 87 -121 113 -57 31 -140 42 -203
26z m148 -41 c54 -14 123 -71 150 -125 11 -22 21 -41 22 -43 1 -2 18 10 37 27
40 35 88 47 152 38 117 -16 189 -96 208 -233 l6 -42 -46 -7 c-26 -4 -85 -4
-133 -1 -47 4 -241 7 -430 7 l-344 0 6 81 c14 212 181 346 372 298z"/>
<path d="M7285 7275 c-21 -54 -15 -144 13 -208 62 -140 255 -212 396 -149 58
26 58 37 1 17 -50 -18 -159 -18 -208 -1 -127 46 -221 213 -189 337 15 58 8 61
-13 4z"/>
<path d="M5050 7276 c-306 -44 -616 -162 -885 -337 -126 -82 -194 -137 -324
-263 -242 -236 -409 -487 -534 -806 -89 -225 -126 -418 -134 -695 -8 -289 16
-458 103 -730 20 -60 39 -114 43 -120 4 -5 16 -32 26 -60 22 -60 113 -235 163
-314 37 -58 158 -219 211 -281 17 -19 31 -38 31 -42 0 -7 -406 -411 -484 -481
-25 -22 -36 -39 -31 -47 5 -8 4 -11 -2 -7 -6 4 -34 -19 -64 -51 -29 -31 -98
-104 -154 -162 -118 -123 -125 -133 -96 -128 12 2 206 187 444 425 l422 422
75 -72 c169 -164 322 -274 518 -372 249 -125 468 -192 736 -225 195 -24 186
-24 186 0 0 15 -7 20 -29 20 -107 0 -404 56 -561 106 -93 29 -258 98 -345 144
-248 132 -482 332 -674 575 -35 44 -70 89 -80 100 -58 70 -164 257 -226 396
-215 485 -233 1093 -48 1584 81 212 167 370 302 550 333 443 838 749 1391 840
310 51 709 16 1014 -91 83 -29 101 -25 23 5 -257 95 -405 122 -702 127 -149 2
-251 -1 -315 -10z"/>
<path d="M7940 6774 c-246 -246 -440 -448 -433 -451 7 -2 15 -5 18 -6 9 -4
885 877 885 890 0 7 -6 13 -13 13 -6 0 -212 -201 -457 -446z"/>
<path d="M5060 7169 c-213 -27 -488 -115 -680 -216 -202 -107 -344 -215 -519
-392 -272 -278 -433 -561 -526 -927 -144 -565 -45 -1156 273 -1644 152 -233
399 -485 613 -623 80 -52 256 -142 394 -200 136 -58 409 -119 593 -133 90 -7
92 -6 92 15 0 19 -6 21 -52 21 -68 0 -285 34 -385 59 -353 91 -639 247 -896
491 -361 342 -576 755 -649 1240 -18 124 -15 461 6 585 62 366 205 685 435
965 133 161 383 374 556 473 269 154 578 250 859 265 82 5 121 11 124 20 4 14
-130 15 -238 1z"/>
<path d="M5360 7165 c0 -11 11 -15 43 -15 60 0 235 -26 331 -49 530 -127 1002
-458 1277 -897 302 -481 396 -1021 279 -1596 -28 -136 -81 -290 -154 -448 -35
-74 -59 -137 -53 -139 17 -6 44 39 106 179 88 197 138 368 167 568 21 145 21
471 0 612 -58 376 -217 741 -445 1020 -70 85 -239 256 -313 316 -224 181 -532
335 -810 404 -113 28 -312 60 -375 60 -41 0 -53 -4 -53 -15z"/>
<path d="M8637 7065 c-55 -52 -86 -89 -81 -96 4 -7 3 -9 -4 -5 -12 7 -82 -49
-82 -66 0 -6 8 -4 18 3 15 13 16 12 3 -3 -7 -10 -18 -15 -23 -12 -10 6 -158
-133 -158 -149 0 -4 5 -5 12 -1 7 4 8 3 4 -5 -4 -6 -12 -9 -17 -5 -15 9 -243
-222 -233 -237 5 -8 3 -9 -5 -4 -16 9 -241 -222 -241 -247 0 -10 3 -18 8 -18
13 0 912 904 912 918 0 27 -29 8 -113 -73z"/>
<path d="M2370 6848 c0 -82 3 -100 13 -90 7 8 13 49 15 102 3 77 2 90 -12 90
-14 0 -16 -15 -16 -102z"/>
<path d="M8394 6529 c-181 -182 -335 -337 -342 -345 -13 -13 -9 -34 7 -34 4 0
75 68 157 151 82 82 233 234 337 337 163 163 211 222 179 222 -5 0 -157 -149
-338 -331z"/>
<path d="M2376 6684 c-9 -25 -7 -234 3 -234 15 0 21 41 21 148 0 94 -9 126
-24 86z"/>
<path d="M8453 6379 c-137 -135 -282 -276 -323 -314 -41 -38 -166 -159 -277
-270 -145 -142 -203 -206 -203 -222 0 -13 1 -23 3 -23 5 1 518 501 787 767
224 222 282 285 272 295 -9 9 -65 -40 -259 -233z"/>
<path d="M8605 6213 c-165 -167 -304 -313 -309 -324 -5 -10 -6 -22 -2 -26 9
-9 646 628 646 645 0 37 -64 -19 -335 -295z"/>
<path d="M2376 6378 c-9 -28 -15 -2316 -7 -2493 7 -137 13 -200 25 -225 l16
-35 -8 45 c-4 25 -7 647 -7 1383 0 735 -4 1337 -8 1337 -4 0 -9 -6 -11 -12z"/>
<path d="M4335 6206 c-221 -57 -369 -171 -491 -377 -120 -204 -157 -348 -157
-614 0 -122 4 -191 17 -246 88 -403 342 -683 661 -730 l75 -11 0 -299 c0 -165
4 -299 9 -299 10 0 58 50 466 480 60 63 114 118 120 122 5 4 288 8 627 8 l617
0 78 25 c332 105 562 454 580 880 20 453 -179 850 -504 1006 -148 71 -118 69
-1136 68 -704 -1 -923 -4 -962 -13z m1963 -41 c201 -47 392 -220 498 -450 136
-294 140 -695 10 -979 -87 -191 -256 -359 -426 -426 l-65 -25 -650 -4 -650 -3
-143 -152 c-78 -83 -198 -209 -267 -281 l-124 -130 -1 126 c0 69 -3 194 -7
277 l-6 151 -56 6 c-135 14 -241 58 -347 144 -201 161 -324 435 -341 756 -12
233 66 526 182 690 105 147 266 264 411 299 90 22 1890 23 1982 1z"/>
<path d="M4544 5446 c-131 -61 -179 -210 -108 -333 98 -171 353 -139 414 51
15 47 8 131 -14 174 -27 52 -86 101 -139 117 -68 20 -93 19 -153 -9z m186 -61
c150 -104 81 -335 -100 -335 -75 0 -129 35 -161 105 -44 95 -1 208 95 251 44
20 121 11 166 -21z"/>
<path d="M5237 5456 c-59 -22 -107 -64 -133 -120 -94 -202 103 -406 301 -312
62 29 100 68 120 125 65 186 -107 371 -288 307z m156 -61 c13 -8 33 -13 43 -9
15 5 16 4 4 -5 -12 -8 -10 -15 14 -40 23 -24 30 -42 34 -85 6 -72 -2 -98 -40
-141 -41 -48 -79 -66 -137 -67 -101 0 -184 81 -183 181 0 83 44 148 122 180
33 14 113 6 143 -14z"/>
<path d="M5927 5456 c-167 -60 -217 -266 -94 -389 113 -113 294 -79 363 68 62
131 -5 280 -144 321 -55 17 -76 17 -125 0z m141 -57 c119 -58 138 -223 35
-308 -48 -40 -97 -51 -156 -36 -58 15 -93 46 -118 103 -35 82 -15 163 56 219
60 48 115 54 183 22z"/>
<path d="M8714 5852 c-93 -86 -794 -801 -794 -810 0 -7 7 -12 15 -12 20 0 809
796 813 821 4 24 -9 24 -34 1z"/>
<path d="M9320 5385 c-21 -23 -20 -30 3 -26 5 1 6 -3 3 -8 -11 -16 12 -22 34
-9 25 16 25 23 2 48 -18 20 -19 20 -42 -5z"/>
<path d="M8275 4960 c-242 -242 -441 -447 -443 -455 -2 -8 3 -15 11 -15 17 0
890 874 895 896 2 8 -3 14 -10 14 -7 0 -211 -198 -453 -440z"/>
<path d="M1612 4997 l-42 -43 43 -42 43 -42 37 38 c20 21 37 42 37 48 0 5 -17
27 -38 47 l-38 37 -42 -43z"/>
<path d="M9484 4976 c-17 -26 -16 -28 4 -49 l22 -21 22 22 22 22 -26 26 -26
26 -18 -26z"/>
<path d="M8286 4506 c-285 -281 -436 -437 -432 -445 4 -7 12 -11 17 -9 19 7
869 861 869 874 0 8 -3 14 -7 14 -5 0 -206 -195 -447 -434z"/>
<path d="M8675 4670 c-3 -5 -5 -331 -3 -725 2 -537 6 -715 15 -715 7 0 13 26
15 73 7 155 -3 1377 -12 1377 -5 0 -12 -4 -15 -10z"/>
<path d="M9082 4366 c-17 -39 21 -63 48 -31 10 13 10 19 -5 35 -23 26 -29 25
-43 -4z m18 -26 c0 -5 -2 -10 -4 -10 -3 0 -8 5 -11 10 -3 6 -1 10 4 10 6 0 11
-4 11 -10z"/>
<path d="M9007 3821 c-59 -59 -107 -111 -107 -115 0 -3 49 -56 108 -117 l108
-110 65 63 c35 35 86 86 111 114 l47 50 -107 112 c-59 62 -110 112 -113 112
-3 0 -53 -49 -112 -109z m113 -91 c18 0 20 7 20 64 l0 63 76 -74 76 -75 -21
-22 c-23 -25 -28 -41 -8 -30 8 5 8 3 -2 -9 -7 -9 -17 -15 -21 -12 -5 3 -29
-16 -54 -42 l-46 -47 0 67 c0 62 -2 67 -21 67 -21 0 -21 -4 -17 -71 l5 -71
-51 51 c-29 28 -56 48 -61 44 -4 -5 -5 -3 -2 3 4 6 -5 22 -18 34 -14 13 -25
28 -25 33 0 5 33 43 73 84 l72 75 3 -66 c3 -58 5 -66 22 -66z"/>
<path d="M6770 3875 c-7 -8 -10 -18 -7 -22 8 -7 946 -8 954 0 3 3 3 13 0 20
-5 12 -78 15 -470 16 -410 2 -465 0 -477 -14z"/>
<path d="M8336 3626 c-203 -201 -243 -246 -218 -246 9 0 462 453 462 463 0 22
-39 -13 -244 -217z"/>
<path d="M6543 3623 c-13 -2 -23 -10 -23 -18 0 -19 43 -20 753 -17 594 3 638
4 635 20 -3 16 -52 17 -673 18 -369 1 -680 -1 -692 -3z"/>
<path d="M6644 3548 c-16 -12 -62 -54 -102 -92 -79 -77 -246 -190 -360 -245
-71 -35 -89 -51 -54 -51 28 0 188 81 272 138 41 28 111 88 155 134 131 135
154 166 89 116z"/>
<path d="M2460 3526 c0 -2 8 -10 18 -17 15 -13 16 -12 3 4 -13 16 -21 21 -21
13z"/>
<path d="M1920 3473 c0 -4 -3 -100 -6 -213 -5 -206 0 -300 17 -300 13 0 12
507 -1 515 -5 3 -10 3 -10 -2z"/>
<path d="M2733 3353 c9 -2 23 -2 30 0 6 3 -1 5 -18 5 -16 0 -22 -2 -12 -5z"/>
<path d="M9123 3233 c-20 -8 -16 -43 5 -43 25 0 31 7 25 31 -5 20 -9 21 -30
12z"/>
<path d="M8900 3210 c0 -13 7 -20 20 -20 13 0 20 7 20 20 0 13 -7 20 -20 20
-13 0 -20 -7 -20 -20z"/>
<path d="M6304 3186 c-10 -8 -15 -18 -11 -23 5 -4 360 -8 790 -8 l782 1 -145
-141 c-538 -523 -1029 -1007 -1034 -1022 -16 -41 187 152 840 799 l372 367
158 3 c133 3 159 5 159 18 0 13 -113 15 -946 18 -804 2 -948 0 -965 -12z"/>
<path d="M8671 2573 c1 -398 -2 -595 -10 -633 -31 -150 -150 -306 -285 -375
-87 -44 -166 -56 -363 -54 l-133 2 0 46 c0 87 -76 311 -100 296 -5 -3 -8 0 -5
7 7 18 -68 107 -146 173 -138 117 -295 171 -474 162 -101 -5 -222 -38 -210
-58 4 -5 0 -6 -7 -4 -28 11 -118 -63 -268 -218 -85 -88 -210 -216 -276 -284
l-121 -124 -799 5 c-440 3 -800 5 -801 5 -1 1 -55 54 -120 119 -453 450 -866
839 -871 823 -5 -14 57 -77 323 -331 66 -63 237 -228 380 -367 l259 -254 -846
3 -847 3 -45 44 c-25 24 -43 48 -40 53 3 5 0 7 -8 6 -7 -2 -12 3 -11 9 2 7 -1
12 -6 10 -18 -4 -773 754 -806 811 -18 30 -23 32 -73 32 l-54 0 7 -257 c9
-339 22 -393 135 -534 58 -73 101 -109 180 -149 128 -65 -133 -60 3065 -60
2027 0 2919 3 2961 11 88 16 190 69 266 138 51 47 75 79 107 143 67 137 69
154 74 618 6 526 -1 760 -20 760 -11 0 -13 -92 -12 -577z"/>
<path d="M8892 2988 c2 -15 11 -24 26 -26 18 -3 22 1 22 22 0 21 -5 26 -26 26
-21 0 -25 -4 -22 -22z"/>
<path d="M9110 2985 c0 -18 5 -25 20 -25 15 0 20 7 20 25 0 18 -5 25 -20 25
-15 0 -20 -7 -20 -25z"/>
<path d="M5728 2963 c6 -2 18 -2 25 0 6 3 1 5 -13 5 -14 0 -19 -2 -12 -5z"/>
<path d="M5658 2953 c6 -2 18 -2 25 0 6 3 1 5 -13 5 -14 0 -19 -2 -12 -5z"/>
<path d="M5583 2943 c9 -2 25 -2 35 0 9 3 1 5 -18 5 -19 0 -27 -2 -17 -5z"/>
<path d="M5400 2930 l-45 -7 45 -1 c25 0 70 3 100 8 l55 7 -55 0 c-30 0 -75
-3 -100 -7z"/>
<path d="M8470 2850 c0 -5 7 -10 15 -10 8 0 15 5 15 10 0 6 -7 10 -15 10 -8 0
-15 -4 -15 -10z"/>
<path d="M8263 2724 c-6 -17 14 -36 32 -31 6 2 11 13 13 25 3 17 -2 22 -18 22
-11 0 -23 -7 -27 -16z"/>
<path d="M8553 2703 c15 -2 37 -2 50 0 12 2 0 4 -28 4 -27 0 -38 -2 -22 -4z"/>
<path d="M8260 2578 c0 -23 18 -41 34 -35 9 4 16 16 16 27 0 15 -7 20 -25 20
-14 0 -25 -6 -25 -12z"/>
<path d="M8896 2435 c-8 -22 1 -35 25 -35 15 0 20 6 17 22 -4 27 -33 36 -42
13z"/>
<path d="M9117 2443 c-4 -3 -7 -15 -7 -25 0 -21 36 -25 43 -5 9 27 -17 50 -36
30z"/>
<path d="M8510 2420 c0 -5 7 -10 15 -10 8 0 15 5 15 10 0 6 -7 10 -15 10 -8 0
-15 -4 -15 -10z"/>
<path d="M7820 2265 c0 -8 7 -15 15 -15 8 0 15 7 15 15 0 8 -7 15 -15 15 -8 0
-15 -7 -15 -15z"/>
<path d="M7960 2265 c0 -8 7 -15 15 -15 8 0 15 7 15 15 0 8 -7 15 -15 15 -8 0
-15 -7 -15 -15z"/>
<path d="M8100 2265 c0 -8 7 -15 15 -15 8 0 15 7 15 15 0 8 -7 15 -15 15 -8 0
-15 -7 -15 -15z"/>
<path d="M8237 2274 c-9 -10 2 -24 19 -24 8 0 14 7 14 15 0 15 -21 21 -33 9z"/>
<path d="M8370 2265 c0 -10 7 -15 18 -13 21 4 19 22 -2 26 -10 2 -16 -3 -16
-13z"/>
<path d="M8510 2265 c0 -8 7 -15 15 -15 8 0 15 7 15 15 0 8 -7 15 -15 15 -8 0
-15 -7 -15 -15z"/>
<path d="M8102 2130 c1 -13 9 -25 16 -28 17 -5 15 23 -4 39 -14 11 -15 10 -12
-11z"/>
<path d="M7820 2126 c0 -9 7 -16 16 -16 9 0 14 5 12 12 -6 18 -28 21 -28 4z"/>
<path d="M7960 2133 c0 -5 4 -15 10 -23 11 -18 25 -7 17 15 -6 15 -27 21 -27
8z"/>
<path d="M8240 2120 c0 -13 5 -20 13 -17 6 2 12 10 12 17 0 7 -6 15 -12 18 -8
2 -13 -5 -13 -18z"/>
<path d="M8375 2130 c-7 -12 2 -30 16 -30 5 0 9 9 9 20 0 21 -15 27 -25 10z"/>
<path d="M8510 2120 c0 -5 7 -10 15 -10 8 0 15 5 15 10 0 6 -7 10 -15 10 -8 0
-15 -4 -15 -10z"/>
<path d="M7962 1978 c6 -18 28 -21 28 -4 0 9 -7 16 -16 16 -9 0 -14 -5 -12
-12z"/>
<path d="M8100 1975 c0 -8 7 -15 15 -15 8 0 15 7 15 15 0 8 -7 15 -15 15 -8 0
-15 -7 -15 -15z"/>
<path d="M8240 1975 c0 -8 7 -15 15 -15 8 0 15 7 15 15 0 8 -7 15 -15 15 -8 0
-15 -7 -15 -15z"/>
<path d="M8376 1975 c-3 -9 0 -15 9 -15 8 0 15 7 15 15 0 8 -4 15 -9 15 -5 0
-11 -7 -15 -15z"/>
<path d="M4684 1912 l-51 -58 52 -56 53 -56 53 56 54 57 -55 57 -55 58 -51
-58z m86 -89 l-35 -42 -27 32 c-15 18 -28 36 -28 40 0 4 12 23 27 42 l27 34
36 -32 36 -32 -36 -42z"/>
<path d="M2235 1306 c-14 -10 -15 -16 -6 -34 13 -25 31 -28 49 -10 29 29 -9
69 -43 44z"/>
<path d="M2683 1313 c-21 -7 -15 -51 7 -58 27 -8 40 1 40 29 0 24 -23 37 -47
29z"/>
<path d="M2976 1312 c-12 -12 -5 -53 10 -59 20 -7 49 21 41 40 -6 15 -42 29
-51 19z"/>
<path d="M2376 1294 c-8 -20 11 -44 34 -44 20 0 32 23 24 45 -8 20 -50 19 -58
-1z"/>
<path d="M2524 1295 c-9 -23 3 -45 25 -45 22 0 41 27 34 48 -6 17 -52 15 -59
-3z"/>
<path d="M2822 1283 c2 -22 8 -28 28 -28 20 0 26 6 28 28 3 24 0 27 -28 27
-28 0 -31 -3 -28 -27z"/>
<path d="M4606 1162 c-9 -14 12 -35 28 -29 23 9 20 37 -3 37 -11 0 -22 -4 -25
-8z"/>
</g>
</svg>
